<svg id="Capa_1" data-name="Capa 1" xmlns="http://www.w3.org/2000/svg" viewBox="0 0 326.19 258.42"><defs><style>.cls-1{fill:#15b7ec;}.cls-2{fill:#4795d1;}.cls-3{fill:#cbe9f6;}.cls-4{fill:#84bc26;}.cls-5{fill:#46bbc5;}.cls-6{fill:#30338a;}.cls-7{fill:#4c4b9a;}.cls-8{fill:#fff;}.cls-9{fill:#f39868;}.cls-10{fill:#efefef;}.cls-11{fill:#f4a872;}.cls-12{fill:#26214e;}.cls-13{fill:#149b9c;}.cls-14{fill:#54b99e;}.cls-15{fill:#87c384;}.cls-16{fill:#bad373;}.cls-17{fill:#4eb0de;}.cls-18{fill:#7dcce7;}.cls-19{fill:#9bd5e0;}.cls-20{fill:#89d0e6;}.cls-21{fill:#f7fbf8;}.cls-22{fill:#db5b27;}.cls-23{fill:#ffe782;}.cls-24{fill:#2baf88;}.cls-25{fill:#9f482d;}.cls-26{fill:#272845;}.cls-27{fill:#f49d73;}.cls-28{fill:#6ba5cd;}.cls-29{fill:#92ccf1;}.cls-30{fill:#1e1839;}.cls-31{fill:#e69673;}</style></defs><title>landing-page</title><rect class="cls-1" x="17.48" width="291.22" height="233.44" rx="18.48"/><rect class="cls-2" x="189.59" y="271.2" width="216.82" height="273.62" rx="12.01" transform="translate(571.11 -181.28) rotate(90)"/><rect class="cls-3" x="33.46" y="14.58" width="259.28" height="204.28" rx="7.76"/><path class="cls-1" d="M134.9,509.7a33.35,33.35,0,0,0,28.47,16.1H432.63a33.35,33.35,0,0,0,28.47-16.1Z" transform="translate(-134.9 -291.29)"/><path class="cls-2" d="M138.39,514.42H457.61a32.88,32.88,0,0,0,3.49-4.72H134.9A32.88,32.88,0,0,0,138.39,514.42Z" transform="translate(-134.9 -291.29)"/><rect class="cls-4" x="53.84" y="136.01" width="72.49" height="40.57"/><rect class="cls-5" x="124.75" y="32.16" width="27.27" height="3.76"/><rect class="cls-5" x="89.49" y="32.16" width="16.65" height="3.76"/><rect class="cls-5" x="51.47" y="32.16" width="32.98" height="3.76"/><rect class="cls-5" x="111.35" y="32.16" width="7.15" height="3.76"/><rect class="cls-5" x="158.96" y="32.16" width="16.59" height="3.76"/><rect class="cls-5" x="124.75" y="43.13" width="10.23" height="3.76"/><rect class="cls-5" x="139.05" y="43.13" width="10.23" height="3.76"/><rect class="cls-5" x="72.53" y="43.13" width="16.65" height="3.76"/><rect class="cls-5" x="51.47" y="43.13" width="16.33" height="3.76"/><rect class="cls-5" x="93.75" y="43.13" width="27.42" height="3.76"/><path class="cls-6" d="M234.47,542.78c-1.73-5.54-5.07-28.94-5.82-38.11-.16-1.94-21.49-10.28-21.49-10.28-12.49-.31-18.91,4.58-18.91,4.58l30,10.13c0,13.53,11.53,33.92,11.53,33.92Z" transform="translate(-134.9 -291.29)"/><path class="cls-7" d="M208.75,511.79l-8.91,31,5.09,1.11c2.22-7.32,15-32.39,15.38-35.37.15-1.27.06-2.25-.42-2.65s-14.85-9-19-9.92c-5.6-1.26-13.9-3.27-13.9-3.27a16.74,16.74,0,0,0-3.77,12.86C184.11,513.52,208.75,511.79,208.75,511.79Z" transform="translate(-134.9 -291.29)"/><path class="cls-8" d="M196.73,457.26s-9.76.86-10.2,3.52,4.65,19.5,4.65,19.5l-5,13.23s14.07,3.47,20.93.88c.65.3,1.76-13.89,1.76-13.89l2.44-7,3.1,10.52,7.1,10,4.65-3.77L221,481.17s-8-18.26-10.13-20.39C206.92,456.79,196.73,457.26,196.73,457.26Z" transform="translate(-134.9 -291.29)"/><path class="cls-9" d="M204.47,458l-.76-10h-7.32v9.37c-.92.1,1,7.59,6.9,7.59C203.29,464.89,206,463.89,204.47,458Z" transform="translate(-134.9 -291.29)"/><path class="cls-10" d="M189.64,475c.85,3,1.54,5.32,1.54,5.32l-5,13.23s10.71,2.64,18,1.6c-.65-.48-9.29-6.3-9.71-8.84C193.62,481,189.64,475,189.64,475Z" transform="translate(-134.9 -291.29)"/><path class="cls-11" d="M211,437.8c-.62-2.57-4.63-3.32-11-2.57-4.31.5-5.28,4.47-5.4,7.42l-.19,0a3.51,3.51,0,0,0-2.47,3.48,3.37,3.37,0,0,0,.86,2.13,3.57,3.57,0,0,0,2.6,1.66,3,3,0,0,0,.9,0c1.8,3.74,5.09,8.39,9.71,7.84C212.79,453,211,437.8,211,437.8Z" transform="translate(-134.9 -291.29)"/><path class="cls-12" d="M196.47,444.56a4.91,4.91,0,0,1,1.76-5.73c3.16-2.37,3.37,1.13,6.7,1.56s6.61.16,6.25,2.36c2-5-.9-7.82-4.15-9.37s-8.35-2.23-11.9.72-3.06,10.06-3.06,10.06C194.41,443,195,443.94,196.47,444.56Z" transform="translate(-134.9 -291.29)"/><path class="cls-12" d="M195.13,434.1s-2.94-7.89-8.51-5.94-3.06,13.18-3.67,18.07-4.11,5.09-5.37,2.92c-2.33,4.43,6.8,8.93,9.77,4.67s1.26-15,3.16-16.13a3.69,3.69,0,0,1,3.81.33Z" transform="translate(-134.9 -291.29)"/><path class="cls-8" d="M186.75,459.9c-2.34,1.35-6.65,17.5-6.65,20.16S200.87,496,200.87,496s.95-3.27,3.17-3.94c-.44-.22-15.52-14.63-15.52-14.63l4-11.29S192.51,456.57,186.75,459.9Z" transform="translate(-134.9 -291.29)"/><polygon class="cls-5" points="64.37 206.71 85.54 206.06 99.29 211.16 76.02 212.4 64.37 206.71"/><polygon class="cls-13" points="76.02 212.4 64.37 207.89 64.37 206.71 76.94 211.25 76.02 212.4"/><polygon class="cls-2" points="76.02 212.4 83.02 193.29 106.16 194.54 99.29 211.61 76.02 212.4"/><path class="cls-5" d="M225.14,493c-.69,1.38-.48,2.88.46,3.35s2.27-.26,3-1.63.48-2.88-.46-3.35S225.83,491.66,225.14,493Z" transform="translate(-134.9 -291.29)"/><path class="cls-11" d="M204,492s8.43,6.65,7.54,7.1a10.47,10.47,0,0,1-6.65-.67c-2-1.11-4.06-2.49-4.06-2.49S201.6,492.25,204,492Z" transform="translate(-134.9 -291.29)"/><path class="cls-12" d="M205.15,542.36c1.5,1.51,6.58,3.81,9.09,4.43,2.69.67,2.22,2.92.25,2.92-3.85,0-12.43-.48-16.66-.48-.66-2,.48-4.66,1.83-6.46C200.07,542.22,204.94,542.14,205.15,542.36Z" transform="translate(-134.9 -291.29)"/><path class="cls-12" d="M235.52,542.36c1.5,1.51,6.59,3.81,9.09,4.43,2.69.67,2.22,2.92.25,2.92-3.85,0-12.43-.48-16.65-.48-.67-2,.48-4.66,1.82-6.46C230.44,542.22,235.31,542.14,235.52,542.36Z" transform="translate(-134.9 -291.29)"/><rect class="cls-14" x="54.23" y="120.24" width="20.33" height="5.6"/><rect class="cls-14" x="106.01" y="120.24" width="20.33" height="5.6"/><rect class="cls-14" x="80.12" y="120.24" width="20.33" height="5.6"/><rect class="cls-15" x="259.43" y="311.03" width="66.33" height="24.71" transform="translate(-203.5 -212.31) rotate(-13.78)"/><rect class="cls-16" x="261.34" y="315.84" width="48.85" height="3.42" transform="translate(-202.3 -214.1) rotate(-13.78)"/><rect class="cls-16" x="262.91" y="322.69" width="40.82" height="3.42" transform="translate(-204 -214.49) rotate(-13.78)"/><rect class="cls-16" x="264.8" y="331.7" width="19.37" height="3.42" transform="translate(-206.41 -216.33) rotate(-13.78)"/><rect class="cls-8" x="304.97" y="316.2" width="10.37" height="3.41" transform="translate(-201.69 -208.28) rotate(-13.78)"/><rect class="cls-8" x="53.47" y="55.03" width="72.35" height="59.04"/><rect class="cls-17" x="131.23" y="89.08" width="142.28" height="26.62"/><rect class="cls-8" x="230.75" y="92.93" width="38.5" height="18.92"/><rect class="cls-18" x="136.43" y="94.08" width="89" height="3.65"/><rect class="cls-18" x="136.43" y="100.57" width="89" height="3.65"/><rect class="cls-18" x="136.43" y="107.05" width="59.92" height="3.65"/><rect class="cls-8" x="131.26" y="134.72" width="136.73" height="64.15"/><rect class="cls-15" x="131.26" y="134.72" width="136.73" height="10.64"/><rect class="cls-19" x="134.58" y="160.48" width="78.95" height="5.41"/><rect class="cls-19" x="134.58" y="170.11" width="70.8" height="5.42"/><rect class="cls-19" x="134.58" y="179.74" width="47.75" height="5.42"/><rect class="cls-19" x="134.58" y="151.61" width="28.46" height="5.42"/><rect class="cls-20" x="221.23" y="151.35" width="41.3" height="41.3"/><path class="cls-21" d="M381,463a5.25,5.25,0,0,0,1-3.13v-3.16a5.26,5.26,0,0,0-10.52,0v3.16a5.25,5.25,0,0,0,1.14,3.26,12.41,12.41,0,0,0-8.29,11.7h26S389.37,465.44,381,463Z" transform="translate(-134.9 -291.29)"/><circle class="cls-22" cx="138.33" cy="140.31" r="2.68"/><circle class="cls-23" cx="146.93" cy="140.31" r="2.68"/><circle class="cls-24" cx="156.91" cy="140.31" r="2.68"/><rect class="cls-4" x="221.44" y="29.6" width="47.89" height="47.89"/><path class="cls-25" d="M423.39,533.61s.42,1.26-3.45,3-7.94,1.14-8.94,2.62a8,8,0,0,0-1.23,2.88h22s-.17-6.06-2.66-8.76C429.41,534,423.39,533.61,423.39,533.61Z" transform="translate(-134.9 -291.29)"/><path class="cls-25" d="M447.33,533.6s.4,1.21-3.32,2.91-7.63,1.09-8.59,2.51a7.71,7.71,0,0,0-1.19,2.78h21.13s-.16-5.84-2.55-8.43C453.11,533.93,447.33,533.6,447.33,533.6Z" transform="translate(-134.9 -291.29)"/><polygon class="cls-8" points="284.16 126.75 268.2 129.55 256.98 105.53 274.16 104.13 284.16 126.75"/><path class="cls-26" d="M399.14,415.61h0S399.09,415.63,399.14,415.61Z" transform="translate(-134.9 -291.29)"/><path class="cls-27" d="M430.11,373A21.29,21.29,0,0,0,428,381c0,2.7.35,6.6.55,8.7a1.22,1.22,0,0,0,1.57,1l3.15-1-.18,4.56,8.78-.15,1.92-18.44S436.42,367.71,430.11,373Z" transform="translate(-134.9 -291.29)"/><path class="cls-12" d="M430.77,382.65s.5-3.65,3.25-2.9-.4,4.44-.4,4.44l2.63,4.74a8.11,8.11,0,0,0,6.13-.18s2.93-8.89,2.93-11.69-2.56-4.7-2.56-4.7-6.85-3.43-10.54-3.25a4.27,4.27,0,0,0-4,3.86s-1.4,2.8,0,4S430.77,382.65,430.77,382.65Z" transform="translate(-134.9 -291.29)"/><path class="cls-28" d="M442.27,391.67l-.4,2.54-9.07,0S434.55,391.44,442.27,391.67Z" transform="translate(-134.9 -291.29)"/><path class="cls-27" d="M403.45,414.35s.64-2-1.93-3.15a7.37,7.37,0,0,0-1-3.34c-.54-.53-.87,2.46-.87,2.46s-2.52-4.47-3.16-3.33,5.67,9.93,5.84,10.29S403.45,414.35,403.45,414.35Z" transform="translate(-134.9 -291.29)"/><path class="cls-12" d="M427.07,443.23,421,494.67l1.23,39.87,7.66-.54s2.16-21,2.33-26.24-1.4-13.32-1.4-13.32l7.72-31.8,1.28.23.35,31.33,7,39.8,6.43.31s.16-20.53-.36-25.61S450,493.44,450,493.44L452.79,461a25,25,0,0,0-2.22-18.12C449.93,442.94,427.07,443.23,427.07,443.23Z" transform="translate(-134.9 -291.29)"/><path class="cls-29" d="M432.8,394.24s-10.87,3.51-12.86,5.5-7.69,22.47-7.69,22.47l-8.59-8.61L401,419.85s10.05,15,13.21,15.43,10.29-18.94,10.29-18.94.65,10.6,1.87,15.9a33.23,33.23,0,0,1,.7,11c9.73,1.77,18,1.4,23.5-.35l2.72-20.43s3.71.44,4.88-.85-4.21-22.45-5.38-24.08-10.92-3.31-10.92-3.31Z" transform="translate(-134.9 -291.29)"/><path class="cls-28" d="M443.38,408.29c-.05-.42-.74-.32-.72.09a133.79,133.79,0,0,1-1.35,26.07c-.1.58.77.85.9.24A75.61,75.61,0,0,0,443.38,408.29Z" transform="translate(-134.9 -291.29)"/><path class="cls-28" d="M453.36,414.8c-.06-.3-.5-.22-.51.07a87.17,87.17,0,0,1-1.7,15.09,53.25,53.25,0,0,0-1.37,13.54c0,.65,1,.65,1,0-.22-5.29.85-10.4,1.82-15.57C453.41,423.63,454.23,419.14,453.36,414.8Z" transform="translate(-134.9 -291.29)"/><path class="cls-28" d="M425.49,414.64c-2.92,1.86-4,5.49-5.13,8.58-1.51,4.18-3,8.29-6.32,11.42-.49.47.25,1.19.74.74,6.08-5.47,5.79-14.42,11-20.4C425.91,414.81,425.71,414.5,425.49,414.64Z" transform="translate(-134.9 -291.29)"/><path class="cls-25" d="M450.69,441.36s-14.74,1.87-23.62-.94c.23,0,0,2.81,0,2.81a44.62,44.62,0,0,0,24.32.93A28.63,28.63,0,0,1,450.69,441.36Z" transform="translate(-134.9 -291.29)"/><path class="cls-30" d="M298.26,501.23s-1.22,2.66-3.32,3.11-7.65,1.66-8.54,2.43-.89,2.78-.89,2.78h17.6s0-5.33-1.06-8.1C302.47,501.45,298.26,501.23,298.26,501.23Z" transform="translate(-134.9 -291.29)"/><path class="cls-30" d="M332.18,501.23s-1.22,2.66-3.32,3.11-7.65,1.66-8.54,2.43-.89,2.78-.89,2.78H337s0-5.33-1.06-8.1C336.39,501.45,332.18,501.23,332.18,501.23Z" transform="translate(-134.9 -291.29)"/><path class="cls-31" d="M330,328.33s-4.9-1.25-5.19-.47S332.4,331,332.4,331l7.09,19.65-2.65,6.29,4.87,5.32s5.32-7.21,5.77-9.31-12.64-23.28-12.64-23.28-2.59-8.25-3-8.65-5.08-.14-6.15-.12,3.09,4.22,3.09,4.22Z" transform="translate(-134.9 -291.29)"/><path class="cls-31" d="M311,342.88a18,18,0,0,0-2.83,6.77,22.92,22.92,0,0,0,.16,6.82l4.29-.15v4h8.52a44.56,44.56,0,0,1,.49-4.7c.34-1.66,2.67-4.82,2.67-4.82L320.43,340l-5.49-.5Z" transform="translate(-134.9 -291.29)"/><path class="cls-12" d="M313.12,348s1.49-3.5,3.32-2.17-.5,4.16-.5,4.16,1.17,4.82,3.16,5.49l2,.66s5.15-4.82,6-6.15-1.33-9-2.82-10.64-8-1.5-8.48-2.33-2.17-2.33-3.83-1.66-1.33,6.15-1.33,6.15,2.06,1.77,2.19,3.05a6.27,6.27,0,0,1-.81,3Z" transform="translate(-134.9 -291.29)"/><path class="cls-12" d="M305.06,360.59s8.5-1.24,13.38-1.35,12.63,2.44,12.63,2.44l5.65-6.05,7.19,6.76s-6.12,9-8.09,11.14-3.42,12-3.86,15S330.41,409,330.41,409s-5.21,6.2-26.61-.56c-.22-.22.89-12.86.78-16s-2.88-13.63-3.44-16.18-9.39-7.65-9.39-7.65-1.09-6.21,3-9.2C295.27,359.79,305.06,360.59,305.06,360.59Z" transform="translate(-134.9 -291.29)"/><path class="cls-31" d="M285.29,335.18s-3.21,3-3.43,4.22,4.42,15.1,4.42,15.1l8.46,5-3,9.2s-9.23-6.43-10.56-8.31-3.66-20.73-3.66-20.73-3-3.77-3.21-4.77-.92-4.26-.41-4.9,3.95-4.19,4.45-3.14,2.35,8.74,2.35,8.74S284.52,333.85,285.29,335.18Z" transform="translate(-134.9 -291.29)"/><path class="cls-7" d="M303.8,408.45,299,453.9l-2.49,48.22,8.31.33s5.16-32,5.24-36.86S310,454.9,310,454.9l5.32-24.28h3l6.15,31.59,6.32,39.24,6.65.34s1-24.45,0-29.43-2.49-9.81-2.49-9.81l-3-32.76s2.66-11.64-1.49-20.78C329.58,407.34,303.8,408.45,303.8,408.45Z" transform="translate(-134.9 -291.29)"/><polygon class="cls-15" points="118.1 65.46 112.7 65.46 112.7 60.06 109.33 60.06 109.33 65.46 103.92 65.46 103.92 68.84 109.33 68.84 109.33 74.24 112.7 74.24 112.7 68.84 118.1 68.84 118.1 65.46"/></svg>